<?xml version="1.0" encoding="UTF-8"?>
<svg width="700pt" height="700pt" version="1.1" viewBox="0 0 700 700" xmlns="http://www.w3.org/2000/svg" xmlns:xlink="http://www.w3.org/1999/xlink">
 <defs>
 
 </defs>
 <g>
  <path d="m354.86 68.426c-119.72 0-217.18 97.457-217.18 217.17 0 119.72 97.457 217.17 217.18 217.17 119.72 0 217.18-97.457 217.18-217.17s-97.465-217.17-217.18-217.17m0 36.094c93.852 0 171.45 72.801 180.48 163.03h-101.07c-8.418-36.098-40.898-63.766-79.402-63.766-38.504 0-71.59 27.668-79.418 63.766h-101.07c9.0195-90.23 86.633-163.03 180.48-163.03m45.711 181.08c0 25.266-20.445 45.719-45.711 45.719-25.273 0-45.719-20.453-45.719-45.719 0-25.266 20.445-45.719 45.719-45.719 25.266 0 45.711 20.449 45.711 45.719m-45.711 181.08c-93.852 0-171.46-72.789-180.48-163.03h100.46c8.4297 36.094 40.906 63.766 79.414 63.766 38.504 0 72.195-27.668 80.008-63.766h101.07c-9.0312 90.246-86.629 163.03-180.48 163.03"/>
  <use x="70" y="644" xlink:href="#t"/>
  <use x="90.550781" y="644" xlink:href="#d"/>
  <use x="104.359375" y="644" xlink:href="#a"/>
  <use x="123.347656" y="644" xlink:href="#k"/>
  <use x="142.242188" y="644" xlink:href="#c"/>
  <use x="155.628906" y="644" xlink:href="#a"/>
  <use x="174.617188" y="644" xlink:href="#j"/>
  <use x="204.410156" y="644" xlink:href="#i"/>
  <use x="224.453125" y="644" xlink:href="#h"/>
  <use x="252.453125" y="644" xlink:href="#g"/>
  <use x="262.867188" y="644" xlink:href="#e"/>
  <use x="279.46875" y="644" xlink:href="#b"/>
  <use x="298.703125" y="644" xlink:href="#f"/>
  <use x="318.636719" y="644" xlink:href="#s"/>
  <use x="328.234375" y="644" xlink:href="#e"/>
  <use x="70" y="672" xlink:href="#r"/>
  <use x="82.183594" y="672" xlink:href="#d"/>
  <use x="95.992188" y="672" xlink:href="#b"/>
  <use x="115.226562" y="672" xlink:href="#q"/>
  <use x="154.152344" y="672" xlink:href="#c"/>
  <use x="167.535156" y="672" xlink:href="#p"/>
  <use x="187.46875" y="672" xlink:href="#a"/>
  <use x="216.207031" y="672" xlink:href="#o"/>
  <use x="239.640625" y="672" xlink:href="#b"/>
  <use x="258.878906" y="672" xlink:href="#n"/>
  <use x="278.8125" y="672" xlink:href="#f"/>
  <use x="308.492188" y="672" xlink:href="#m"/>
  <use x="329.015625" y="672" xlink:href="#d"/>
  <use x="342.820312" y="672" xlink:href="#b"/>
  <use x="362.058594" y="672" xlink:href="#l"/>
  <use x="371.65625" y="672" xlink:href="#a"/>
  <use x="390.648438" y="672" xlink:href="#e"/>
  <use x="407.242188" y="672" xlink:href="#c"/>
 </g>
</svg>
