<?xml version="1.0" encoding="UTF-8"?>
<svg width="700pt" height="700pt" version="1.1" viewBox="0 0 700 700" xmlns="http://www.w3.org/2000/svg" xmlns:xlink="http://www.w3.org/1999/xlink">
 <defs>
  
 </defs>
 <g>
  <path d="m591.04 154.05h-71.176c-4.7656-19.258-21.527-33.527-41.418-33.527h-77.031v-60.223c0-6.1836-5.0195-11.199-11.199-11.199h-276.32c-6.1836 0-11.199 5.0195-11.199 11.199v427.2c0 6.1836 5.0195 11.199 11.199 11.199h276.31 0.011719 0.011719 200.8c6.1836 0 11.199-5.0195 11.199-11.199v-322.25c0.007813-6.1875-5.0039-11.199-11.195-11.199zm-212.03-82.551v51.824h-143.95c-6.6289 0-12.859 2.582-17.543 7.2695l-14.812 14.812c-1.7031 1.7031-4.0586 2.6758-6.4609 2.6758h-71.152v-76.582zm-253.91 404.8v-311.41h71.148c6.9219 0 13.434-2.6953 18.336-7.5938l14.812-14.812c1.5195-1.5195 3.5273-2.3477 5.668-2.3477h143.95v336.17zm454.74 0h-178.4v-333.38h77.012c11.234 0 20.379 10.02 20.379 22.328 0 6.1836 5.0195 11.199 11.199 11.199h69.82v299.85z"/>
  <path d="m170.32 137.32c16.34 0 29.637-13.293 29.637-29.637 0-16.34-13.293-29.637-29.637-29.637-16.34 0-29.637 13.293-29.637 29.637 0 16.34 13.289 29.637 29.637 29.637zm0-48.078c10.164 0 18.434 8.2695 18.434 18.434 0 10.164-8.2695 18.434-18.434 18.434-10.164 0-18.434-8.2695-18.434-18.434 0-10.16 8.2656-18.434 18.434-18.434z"/>
  <path d="m216.38 101.24c5.6211 0 10.199-4.5742 10.199-10.199 0-5.6211-4.5742-10.199-10.199-10.199-5.6211 0-10.199 4.5742-10.199 10.199s4.5781 10.199 10.199 10.199zm0-14.797c2.5352 0 4.5977 2.0664 4.5977 4.5977s-2.0664 4.5977-4.5977 4.5977-4.5977-2.0625-4.5977-4.5977c0-2.5352 2.0664-4.5977 4.5977-4.5977z"/>
  <path d="m157.46 360.77c-10.578 0-19.18 8.6055-19.18 19.18s8.6055 19.18 19.18 19.18c10.578 0 19.188-8.6055 19.188-19.18-0.003907-10.574-8.6094-19.18-19.188-19.18zm0 27.164c-4.4023 0-7.9805-3.5781-7.9805-7.9805s3.5781-7.9805 7.9805-7.9805c4.4023 0 7.9844 3.5781 7.9844 7.9805s-3.582 7.9805-7.9844 7.9805z"/>
  <path d="m544.15 342.11c-10.18 0-18.457 8.2812-18.457 18.457 0 10.18 8.2812 18.457 18.457 18.457 10.176 0 18.457-8.2812 18.457-18.457 0-10.184-8.2812-18.457-18.457-18.457zm0 25.715c-4.0039 0-7.2578-3.2578-7.2578-7.2578s3.2578-7.2578 7.2578-7.2578 7.2578 3.2578 7.2578 7.2578c0 4.0039-3.2578 7.2578-7.2578 7.2578z"/>
  <path d="m241.64 101.24c5.6211 0 10.199-4.5742 10.199-10.199 0-5.6211-4.5742-10.199-10.199-10.199-5.6211 0-10.199 4.5742-10.199 10.199s4.5781 10.199 10.199 10.199zm0-14.797c2.5352 0 4.5977 2.0664 4.5977 4.5977s-2.0625 4.5977-4.5977 4.5977-4.5977-2.0625-4.5977-4.5977c0-2.5352 2.0586-4.5977 4.5977-4.5977z"/>
  <path d="m266.89 101.24c5.6211 0 10.199-4.5742 10.199-10.199 0-5.6211-4.5742-10.199-10.199-10.199-5.6211 0-10.199 4.5742-10.199 10.199 0.003907 5.625 4.5781 10.199 10.199 10.199zm0-14.797c2.5352 0 4.5977 2.0664 4.5977 4.5977s-2.0664 4.5977-4.5977 4.5977-4.5977-2.0625-4.5977-4.5977c0-2.5352 2.0664-4.5977 4.5977-4.5977z"/>
  <path d="m346.65 339.5c4.6406 0 8.3984-3.7578 8.3984-8.3984v-137.81c0-4.6406-3.7578-8.3984-8.3984-8.3984l-189.19-0.003907c-4.6406 0-8.3984 3.7578-8.3984 8.3984v110.95c0 2.2305 0.88672 4.3633 2.457 5.9414l26.867 26.867c1.5742 1.5742 3.7109 2.457 5.9414 2.457zm-180.79-38.738v-99.062h172.39v121.01l-150.44-0.003906z"/>
  <path d="m186.4 359.82c-3.0898 0-5.6016 2.5078-5.6016 5.6016 0 3.0898 2.5078 5.6016 5.6016 5.6016h25.105c3.0898 0 5.6016-2.5078 5.6016-5.6016 0-3.0898-2.5078-5.6016-5.6016-5.6016z"/>
  <path d="m232.42 359.82c-3.0898 0-5.6016 2.5078-5.6016 5.6016 0 3.0898 2.5078 5.6016 5.6016 5.6016h25.105c3.0898 0 5.6016-2.5078 5.6016-5.6016 0-3.0898-2.5078-5.6016-5.6016-5.6016z"/>
  <path d="m517.1 315.02c0-3.0898-2.5078-5.6016-5.6016-5.6016h-25.105c-3.0898 0-5.6016 2.5078-5.6016 5.6016 0 3.0898 2.5078 5.6016 5.6016 5.6016h25.105c3.0977 0 5.6016-2.5078 5.6016-5.6016z"/>
  <path d="m557.01 309.42h-25.105c-3.0898 0-5.6016 2.5078-5.6016 5.6016 0 3.0898 2.5078 5.6016 5.6016 5.6016h25.105c3.0898 0 5.6016-2.5078 5.6016-5.6016s-2.5078-5.6016-5.6016-5.6016z"/>
  <path d="m419.12 192.38v49.219c0 3.0898 2.5078 5.6016 5.6016 5.6016h132.29c3.0898 0 5.6016-2.5078 5.6016-5.6016v-49.219c0-3.0898-2.5078-5.6016-5.6016-5.6016l-132.29 0.003906c-3.0938 0-5.6016 2.5078-5.6016 5.5977zm11.199 5.6016h121.09v38.02h-121.09z"/>
  <path d="m192 302.84h120.12c3.0898 0 5.6016-2.5078 5.6016-5.6016l-0.003906-75.496c0-3.0898-2.5078-5.6016-5.6016-5.6016h-120.12c-3.0898 0-5.6016 2.5078-5.6016 5.6016v75.5c0.003906 3.0898 2.5156 5.5977 5.6055 5.5977zm5.6016-75.5h108.92v64.301h-108.92z"/>
  <path d="m339.94 395.8h-6.0469v-6.0469c0-8.6758-7.0547-15.73-15.73-15.73-8.6758 0-15.73 7.0547-15.73 15.73v6.0469h-6.0469c-8.6758 0-15.73 7.0547-15.73 15.73s7.0547 15.73 15.73 15.73h6.0469v6.0469c0 8.6758 7.0547 15.73 15.73 15.73 8.6758 0 15.73-7.0547 15.73-15.73v-6.0469h6.0469c8.6758 0 15.73-7.0547 15.73-15.73 0-8.6719-7.0625-15.73-15.73-15.73zm0 20.258h-11.324l-5.9258 0.32422v16.922c0 2.4961-2.0312 4.5312-4.5312 4.5312-2.4961 0-4.5312-2.0312-4.5312-4.5312v-11.324l-0.32422-5.9258h-16.922c-2.4961 0-4.5312-2.0312-4.5312-4.5312 0-2.4961 2.0312-4.5312 4.5312-4.5312h11.324l5.9258-0.32422v-16.922c0-2.4961 2.0312-4.5312 4.5312-4.5312 2.4961 0 4.5312 2.0312 4.5312 4.5312v11.324l0.32422 5.9258h16.922c2.4961 0 4.5312 2.0312 4.5312 4.5312 0 2.4961-2.0312 4.5312-4.5312 4.5312z"/>
  <path d="m265.12 390.96h-78.719c-3.0898 0-5.6016 2.5078-5.6016 5.6016v44.766c0 3.0898 2.5078 5.6016 5.6016 5.6016h78.719c3.0898 0 5.6016-2.5078 5.6016-5.6016v-44.766c0-3.0898-2.5117-5.6016-5.6016-5.6016zm-5.6016 44.773h-67.52v-33.566h67.52z"/>
  <path d="m475.12 411.94h-50.406c-3.0898 0-5.6016 2.5078-5.6016 5.6016v22.289c0 3.0898 2.5078 5.6016 5.6016 5.6016h50.406c3.0898 0 5.6016-2.5078 5.6016-5.6016v-22.289c0-3.0938-2.5078-5.6016-5.6016-5.6016zm-5.5977 22.285h-39.207v-11.09h39.207z"/>
  <path d="m557.01 411.94h-50.406c-3.0898 0-5.6016 2.5078-5.6016 5.6016v22.289c0 3.0898 2.5078 5.6016 5.6016 5.6016h50.406c3.0898 0 5.6016-2.5078 5.6016-5.6016v-22.289c0-3.0938-2.5078-5.6016-5.6016-5.6016zm-5.5977 22.285h-39.207v-11.09h39.207z"/>
  <path d="m480.56 342h-55.844c-3.0898 0-5.6016 2.5078-5.6016 5.6016v31.758c0 3.0898 2.5078 5.6016 5.6016 5.6016h55.844c3.0898 0 5.6016-2.5078 5.6016-5.6016v-31.758c0-3.0898-2.5039-5.6016-5.6016-5.6016zm-5.6016 31.758h-44.645v-20.559h44.645z"/>
  <path d="m557.01 257.03h-132.29c-3.0898 0-5.6016 2.5078-5.6016 5.6016v31.051c0 3.0898 2.5078 5.6016 5.6016 5.6016h132.29c3.0898 0 5.6016-2.5078 5.6016-5.6016v-31.051c-0.003906-3.0898-2.5117-5.6016-5.6055-5.6016zm-5.5977 31.055h-121.09v-19.852h121.09z"/>
  <use x="70" y="644" xlink:href="#x"/>
  <use x="90.550781" y="644" xlink:href="#b"/>
  <use x="104.359375" y="644" xlink:href="#a"/>
  <use x="123.347656" y="644" xlink:href="#e"/>
  <use x="142.242188" y="644" xlink:href="#c"/>
  <use x="155.628906" y="644" xlink:href="#a"/>
  <use x="174.617188" y="644" xlink:href="#m"/>
  <use x="204.410156" y="644" xlink:href="#h"/>
  <use x="224.453125" y="644" xlink:href="#l"/>
  <use x="252.453125" y="644" xlink:href="#k"/>
  <use x="262.867188" y="644" xlink:href="#j"/>
  <use x="282.804688" y="644" xlink:href="#e"/>
  <use x="301.695312" y="644" xlink:href="#g"/>
  <use x="331.378906" y="644" xlink:href="#f"/>
  <use x="351.898438" y="644" xlink:href="#e"/>
  <use x="370.796875" y="644" xlink:href="#h"/>
  <use x="390.835938" y="644" xlink:href="#i"/>
  <use x="400.4375" y="644" xlink:href="#d"/>
  <use x="429.421875" y="644" xlink:href="#f"/>
  <use x="449.941406" y="644" xlink:href="#w"/>
  <use x="468.929687" y="644" xlink:href="#b"/>
  <use x="482.742187" y="644" xlink:href="#a"/>
  <use x="501.730469" y="644" xlink:href="#v"/>
  <use x="527.773437" y="644" xlink:href="#u"/>
  <use x="549.117188" y="644" xlink:href="#a"/>
  <use x="568.109375" y="644" xlink:href="#i"/>
  <use x="577.703125" y="644" xlink:href="#c"/>
  <use x="591.089844" y="644" xlink:href="#b"/>
  <use x="604.898438" y="644" xlink:href="#t"/>
  <use x="623.792969" y="644" xlink:href="#g"/>
  <use x="70" y="672" xlink:href="#s"/>
  <use x="82.183594" y="672" xlink:href="#b"/>
  <use x="95.992188" y="672" xlink:href="#d"/>
  <use x="115.226562" y="672" xlink:href="#r"/>
  <use x="154.152344" y="672" xlink:href="#c"/>
  <use x="167.535156" y="672" xlink:href="#q"/>
  <use x="187.46875" y="672" xlink:href="#a"/>
  <use x="216.207031" y="672" xlink:href="#p"/>
  <use x="239.640625" y="672" xlink:href="#d"/>
  <use x="258.878906" y="672" xlink:href="#j"/>
  <use x="278.8125" y="672" xlink:href="#g"/>
  <use x="308.492188" y="672" xlink:href="#f"/>
  <use x="329.015625" y="672" xlink:href="#b"/>
  <use x="342.820312" y="672" xlink:href="#d"/>
  <use x="362.058594" y="672" xlink:href="#o"/>
  <use x="371.65625" y="672" xlink:href="#a"/>
  <use x="390.648438" y="672" xlink:href="#n"/>
  <use x="407.242188" y="672" xlink:href="#c"/>
 </g>
</svg>
