<?xml version="1.0" encoding="UTF-8"?>
<svg width="700pt" height="700pt" version="1.1" viewBox="0 0 700 700" xmlns="http://www.w3.org/2000/svg" xmlns:xlink="http://www.w3.org/1999/xlink">
 <defs>
  
 </defs>
 <path transform="matrix(5.6 0 0 5.6 70 3.979e-14)" d="m80.807 77.884c0 2.7609-2.2391 5-5 5h-53.333c-2.7609 0-5-2.2391-5-5v-53.334c0-2.7609 2.2391-5 5-5h53.333c2.7609 0 5 2.2391 5 5zm0 0" fill="none" stroke="#000" stroke-linecap="round" stroke-linejoin="round" stroke-miterlimit="10" stroke-width="5"/>
 <path d="m470.02 276.1c-1.4883-0.59766-3.1094-0.94531-4.8164-0.94531h-78.77c-5.5234-17.527-21.926-30.273-41.254-30.273-19.332 0-35.734 12.746-41.254 30.273h-78.77c-1.707 0-3.3281 0.34766-4.8164 0.94531-4.7773 1.9141-8.1602 6.5703-8.1602 12.027 0 5.4609 3.3828 10.113 8.1602 12.023 1.4883 0.59766 3.1094 0.94531 4.8164 0.94531h78.77c5.5273 17.527 21.93 30.273 41.262 30.273 19.332 0 35.734-12.746 41.254-30.273h78.77c1.707 0 3.3281-0.34766 4.8164-0.94531 4.7773-1.9141 8.1602-6.5703 8.1602-12.023-0.007812-5.4609-3.3906-10.113-8.168-12.027zm-102.39 25.004c-4.4844 7.75-12.852 12.977-22.449 12.977s-17.965-5.2266-22.449-12.977c-2.2109-3.8203-3.5-8.2422-3.5-12.977 0-4.7305 1.2891-9.1562 3.5-12.977 4.4844-7.75 12.848-12.969 22.449-12.969 9.5977 0 17.961 5.2266 22.445 12.969 2.2188 3.8203 3.5 8.2422 3.5 12.977 0.003906 4.7266-1.2812 9.1523-3.4961 12.977z"/>
 <path d="m345.18 268.66c-6.9062 0-13.355 3.7344-16.832 9.7383-1.7188 2.9688-2.625 6.3281-2.625 9.7227 0 3.3945 0.90625 6.7578 2.625 9.7227 3.4844 6.0078 9.9297 9.7422 16.84 9.7422s13.355-3.7344 16.832-9.7422c1.7188-2.9609 2.625-6.3281 2.625-9.7227 0-3.3945-0.90625-6.7578-2.625-9.7227-3.4844-6.0039-9.9336-9.7383-16.84-9.7383zm11.223 25.934c-2.3242 4.0156-6.625 6.5078-11.223 6.5078s-8.8984-2.4922-11.223-6.5c-1.1641-2.0117-1.7539-4.1836-1.7539-6.4727 0-2.2852 0.58984-4.4648 1.7539-6.4727 2.3594-4.0703 6.5508-6.5 11.223-6.5 4.5977 0 8.8984 2.4922 11.219 6.5 1.1641 2.0117 1.7539 4.1875 1.7539 6.4727 0.003906 2.2812-0.58594 4.4609-1.75 6.4648z"/>
 <path d="m228.65 270.04c5.8672 1.3203 11.777-2.4531 13.086-8.2695l1.0977-4.8945c12.215-46.543 54.293-79.043 102.32-79.043 48.332 0 90.484 32.742 102.48 79.57l0.99609 4.4336c1.1367 5.0273 5.5234 8.5391 10.672 8.5391 0.80469 0 1.6172-0.089844 2.4141-0.26953 5.8906-1.3281 9.5977-7.2031 8.2539-13.164l-1.3984-5.3086c-14.648-56.191-65.406-95.43-123.43-95.43-57.98 0-108.73 39.211-123.41 95.363l-1.3789 5.3828c-1.3125 5.8906 2.3984 11.762 8.2852 13.09z"/>
 <path d="m461.72 303.6c-5.8672-1.3203-11.777 2.457-13.086 8.2773l-1.0977 4.8906c-12.215 46.543-54.293 79.043-102.32 79.043-48.332 0-90.484-32.742-102.48-79.57l-0.99609-4.4336c-1.1367-5.0273-5.5234-8.5391-10.672-8.5391-0.80469 0-1.6172 0.089844-2.4141 0.26953-5.8906 1.3281-9.5977 7.2031-8.2539 13.16l1.3984 5.3086c14.648 56.191 65.406 95.43 123.43 95.43 57.98 0 108.73-39.207 123.41-95.363l1.3789-5.3828c1.3164-5.8867-2.3984-11.762-8.2852-13.09z"/>
 <g>
  <use x="70" y="644" xlink:href="#v"/>
  <use x="90.550781" y="644" xlink:href="#b"/>
  <use x="104.359375" y="644" xlink:href="#a"/>
  <use x="123.347656" y="644" xlink:href="#e"/>
  <use x="142.242188" y="644" xlink:href="#d"/>
  <use x="155.628906" y="644" xlink:href="#a"/>
  <use x="174.617188" y="644" xlink:href="#g"/>
  <use x="204.410156" y="644" xlink:href="#k"/>
  <use x="224.453125" y="644" xlink:href="#j"/>
  <use x="252.453125" y="644" xlink:href="#i"/>
  <use x="274.121094" y="644" xlink:href="#f"/>
  <use x="294.054688" y="644" xlink:href="#g"/>
  <use x="314.097656" y="644" xlink:href="#b"/>
  <use x="327.90625" y="644" xlink:href="#a"/>
  <use x="346.898438" y="644" xlink:href="#e"/>
  <use x="375.539062" y="644" xlink:href="#u"/>
  <use x="398.523438" y="644" xlink:href="#c"/>
  <use x="417.757812" y="644" xlink:href="#f"/>
  <use x="437.691406" y="644" xlink:href="#h"/>
  <use x="453.988281" y="644" xlink:href="#e"/>
  <use x="472.882812" y="644" xlink:href="#t"/>
  <use x="482.480469" y="644" xlink:href="#a"/>
  <use x="501.46875" y="644" xlink:href="#h"/>
  <use x="70" y="672" xlink:href="#s"/>
  <use x="82.183594" y="672" xlink:href="#b"/>
  <use x="95.992188" y="672" xlink:href="#c"/>
  <use x="115.226562" y="672" xlink:href="#r"/>
  <use x="154.152344" y="672" xlink:href="#d"/>
  <use x="167.535156" y="672" xlink:href="#q"/>
  <use x="187.46875" y="672" xlink:href="#a"/>
  <use x="216.207031" y="672" xlink:href="#p"/>
  <use x="239.640625" y="672" xlink:href="#c"/>
  <use x="258.878906" y="672" xlink:href="#o"/>
  <use x="278.8125" y="672" xlink:href="#f"/>
  <use x="308.492188" y="672" xlink:href="#n"/>
  <use x="329.015625" y="672" xlink:href="#b"/>
  <use x="342.820312" y="672" xlink:href="#c"/>
  <use x="362.058594" y="672" xlink:href="#m"/>
  <use x="371.65625" y="672" xlink:href="#a"/>
  <use x="390.648438" y="672" xlink:href="#l"/>
  <use x="407.242188" y="672" xlink:href="#d"/>
 </g>
</svg>
