<svg xmlns="http://www.w3.org/2000/svg" width="500" height="500" viewBox="0 0 500 800" role="img" aria-labelledby="title  desc">
    <title>A simple loading of pokemon</title>
    <desc>Vector by: https://www.vecteezy.com/vector-art/118392-pokemon-yellow-monster</desc>

    <text class="loading" x="175" y="775" >Loading...</text>
    <style>
        .pokeBall{
            transform-origin: 510px 570px;
            animation:swing-pokeball 1s steps(20) infinite;   
        }

        .openEye{
            animation: blink 3s forwards infinite;
        }

        @keyframes swing-pokeball {
            0%{
                transform: rotate(0deg);
            }

            100%{
                transform: rotate(360deg);
            }
        }

        @keyframes blink{
            20%, 100%{
                fill-opacity: 1;
            }

            0%{
                fill-opacity: 1;
            }

            10%{
                fill-opacity: 0;
            }
        }

        .loading{
            font-family: 'Orbitron', sans-serif;
            font-size:4em;
            animation: blink 1.5s ease-in-out infinite;
            fill:black;
        }
    </style>

<ellipse opacity=".056" fill="#6A7A76" cx="276.7" cy="667.4" rx="241.2" ry="47"/><ellipse opacity=".111" fill="#667672" cx="276.7" cy="667.4" rx="227.1" ry="44.3"/><ellipse opacity=".167" fill="#62726E" cx="276.7" cy="667.4" rx="213" ry="41.5"/><ellipse opacity=".222" fill="#5E6E6A" cx="276.7" cy="667.4" rx="198.9" ry="38.8"/><ellipse opacity=".278" fill="#5A6A66" cx="276.7" cy="667.4" rx="184.8" ry="36"/><ellipse opacity=".333" fill="#566762" cx="276.7" cy="667.4" rx="170.7" ry="33.3"/><ellipse opacity=".389" fill="#52635E" cx="276.7" cy="667.4" rx="156.5" ry="30.5"/><ellipse opacity=".444" fill="#4E5F5B" cx="276.7" cy="667.4" rx="142.4" ry="27.8"/><ellipse opacity=".5" fill="#4B5C57" cx="276.7" cy="667.4" rx="128.3" ry="25"/><path fill="#FCF2AD" d="M512.9 240.3c3.7-13.1 20-76.4 12.1-140.2-71.3-8.8-142 12.6-142.6 12.8C381.2 111 341.3 46.8 276.7 3 212.1 46.8 172.2 111 171 112.9c-.6-.2-71.3-21.6-142.6-12.8-7.9 63.8 8.4 127 12.1 140.2-24.1 43.1-38 93.3-38 146.9 0 159.7 122.8 289.2 274.2 289.2 151.4 0 274.2-129.5 274.2-289.2 0-53.6-13.9-103.9-38-146.9zM171 112.9"/><path fill="#2D181B" d="M276.7 677.9c-73.7 0-142.9-30.3-195-85.2C29.7 537.8 1 464.8 1 387.2c0-51.8 13.1-102.7 37.9-147.1-3.8-13.6-19.8-76.8-12-140.2l.1-1.2 1.2-.1c67-8.3 132.6 9.7 142.2 12.5 5.5-8.6 44.4-68 105.5-109.4l.8-.6.8.6c61.1 41.4 100 100.7 105.5 109.4 9.6-2.8 75.1-20.8 142.2-12.5l1.2.1.1 1.2c7.8 63.3-8.2 126.6-12 140.2 24.8 44.5 37.9 95.3 37.9 147.1 0 77.6-28.7 150.6-80.7 205.5-52.1 55-121.3 85.2-195 85.2zM29.8 101.4c-7.5 63.4 8.8 126.4 12.2 138.4l.2.6-.3.5C17.1 285.1 4 335.7 4 387.2c0 76.9 28.4 149.1 79.9 203.5 51.5 54.3 120 84.2 192.8 84.2 72.8 0 141.3-29.9 192.8-84.2 51.5-54.3 79.9-126.6 79.9-203.5 0-51.5-13.1-102.1-37.8-146.2l-.3-.5.2-.6c3.4-12 19.7-75.1 12.2-138.4-70-8.3-138 12-140.9 12.9l-1.1.3-.6-1c-1.6-2.7-40.8-65.5-104.4-108.8C213.2 48.2 174 111 172.3 113.7l-.6 1-1.1-.3c-2.9-.9-70.9-21.3-140.8-13z"/><path fill="#FCF8E2" d="M31.1 397.5c0-51.7 12.4-100.2 34-141.7-3.3-12.7-17.9-73.7-10.8-135.2 63.9-8.5 127.2 12.2 127.8 12.3 1-1.8 36.8-87.8 94.7-130C212.1 46.8 172.2 111 171 112.9c-.6-.2-71.3-21.6-142.6-12.8-7.9 63.8 8.4 127 12.1 140.2-24.1 43.1-38 93.3-38 146.9 0 159.7 122.8 289.2 274.2 289.2-135.7 0-245.6-124.9-245.6-278.9z"/><path fill="#EAD094" d="M512.9 240.3c3.7-13.1 20-76.4 12.1-140.2-71.3-8.8-142 12.6-142.6 12.8C381.2 111 341.3 46.8 276.7 3c57.9 42.2 93.6 128.2 94.7 130 .6-.2 63.9-20.8 127.8-12.3 7.1 61.5-7.5 122.5-10.8 135.2 21.6 41.5 34 90 34 141.7 0 154-110 278.9-245.7 278.9 151.4 0 274.2-129.5 274.2-289.2 0-53.7-13.9-104-38-147z"/><circle fill="#2D181B" cx="184.8" cy="268" r="45.4"/><circle fill="#FFF" cx="184.8" cy="251.4" r="16.6"/><circle fill="#FFF" cx="164.4" cy="275.9" r="10.2"/><path fill="#2D181B" d="M276.7 316.3c-26.2 0-50.5-11.9-50.5-11.9 0 32 13.8 51.4 27 62.7 12.3 10.5 34.7 10.5 47.1 0 13.2-11.2 27-30.7 27-62.7-.1 0-24.4 11.9-50.6 11.9z"/><g><path fill="#EEEEED" d="M276.7 676.4c151.4 0 274.2-129.5 274.2-289.2 0-9.4-.4-18.8-1.3-28l-48 34.6-34.5-34-42.6 54.3-20.3-20.3-19.1 20.3-43.8-26.4-64.6 45.9-64.6-45.9-43.8 26.4-19.1-20.3-20.3 20.3-42.6-54.3-34.5 34-48-34.6c-.8 9.2-1.3 18.6-1.3 28 0 159.7 122.8 289.2 274.2 289.2z"/><path fill="#FFF" d="M526.6 409.8c0-7.7-.4-15.3-1.2-22.9l-43.8 28.2-31.4-27.8-38.8 44.3-18.5-16.6-17.4 16.6-40-21.5-58.9 37.5-58.9-37.5-40 21.5-17.4-16.6-18.3 16.7-38.8-44.3-31.4 27.8L28 386.9c-.8 7.5-1.2 15.1-1.2 22.9 0 130.4 111.9 236 249.9 236s249.9-105.7 249.9-236z"/><path fill="#2D181B" d="M276.7 677.9c-73.7 0-142.9-30.3-195-85.2C29.7 537.8 1 464.8 1 387.2c0-9.3.4-18.8 1.3-28.1l.2-2.6 49.1 35.4 34.8-34.3 42.6 54.3 20.2-20.2 19.3 20.5 43.7-26.3 64.5 45.9 64.5-45.9 43.7 26.3 19.3-20.5 20.2 20.2 42.6-54.3 34.8 34.3 49.1-35.4.2 2.6c.9 9.4 1.3 18.8 1.3 28.1 0 77.6-28.7 150.6-80.7 205.5-52.1 55-121.3 85.2-195 85.2zM5 361.9c-.7 8.4-1 16.9-1 25.2C4 464 32.4 536.2 83.9 590.6c51.5 54.3 120 84.2 192.8 84.2 72.8 0 141.3-29.9 192.8-84.2 51.5-54.3 79.9-126.6 79.9-203.5 0-8.4-.4-16.8-1-25.2l-46.9 33.8-34.3-33.7-42.6 54.3-20.4-20.4-18.8 20-44-26.5-64.7 46-64.7-46-44 26.6-18.8-20-20.4 20.4L86.2 362 52 395.7 5 361.9z"/></g><g><path fill="#FCF2AD" d="M277.2 374c30.9 112.3 86.9 101.4 103.2 95.5 3.1-1.1 5.5-3.5 6.6-6.6 5.9-16.4 16.8-72.3-95.5-103.2-9.2-2.6-16.8 5.1-14.3 14.3z"/><path fill="#FFFDF6" d="M291.5 368.7c78.4 21.6 96.8 55.4 98.7 79.4 1.9-23.8-9.9-63.9-98.7-88.4-9.2-2.5-16.8 5.1-14.3 14.3l.3 1.2c2.1-5.2 7.7-8.3 14-6.5z"/><path fill="#EAD094" d="M382 414c2.6 12.1.5 22.1-1.3 27.4-.9 2.9-3.1 5.1-6 6-14.7 4.7-63.3 12.2-97.6-80.2-.6 2-.6 4.3 0 6.7C308 486.2 364 475.3 380.3 469.4c3.1-1.1 5.5-3.5 6.6-6.6 3.2-8.5 7.6-27.8-4.9-48.8z"/><path fill="#2D181B" d="M361 474.4c-7.9 0-17.2-1.6-26.8-6.7-25.3-13.1-45-44.5-58.5-93.3-1.3-4.8-.2-9.7 3.2-13 3.3-3.3 8.2-4.5 13-3.2 48.8 13.4 80.2 33.1 93.3 58.5 10.3 19.9 6.4 37.8 3.2 46.7-1.3 3.5-3.9 6.2-7.5 7.5-4.6 1.7-11.5 3.5-19.9 3.5zm-73-113.7c-2.7 0-5.2 1-7 2.8-2.5 2.5-3.4 6.3-2.4 10.1 13.2 48 32.4 78.8 56.9 91.5 18.9 9.8 35.9 6.1 44.3 3 2.7-1 4.7-3 5.7-5.7 3.1-8.5 6.7-25.5-3-44.3-12.7-24.6-43.5-43.7-91.5-56.9-.9-.4-2-.5-3-.5z"/></g><g><path fill="#FCF2AD" d="M276.2 374c-30.9 112.3-86.9 101.4-103.2 95.5-3.1-1.1-5.5-3.5-6.6-6.6-5.9-16.4-16.8-72.3 95.5-103.2 9.2-2.6 16.8 5.1 14.3 14.3z"/><path fill="#FFFDF6" d="M261.9 368.7c-78.4 21.6-96.8 55.4-98.7 79.4-1.9-23.8 9.9-63.9 98.7-88.4 9.2-2.5 16.8 5.1 14.3 14.3l-.3 1.2c-2.1-5.2-7.7-8.3-14-6.5z"/><path fill="#EAD094" d="M171.4 414c-2.6 12.1-.5 22.1 1.3 27.4.9 2.9 3.1 5.1 6 6 14.7 4.7 63.3 12.2 97.6-80.2.6 2 .6 4.3 0 6.7-30.9 112.3-86.9 101.4-103.2 95.5-3.1-1.1-5.5-3.5-6.6-6.6-3.2-8.5-7.6-27.8 4.9-48.8z"/><path fill="#2D181B" d="M192.4 474.4c-8.4 0-15.3-1.8-19.9-3.5-3.5-1.3-6.2-3.9-7.5-7.5-3.2-8.9-7.1-26.8 3.2-46.7 13.1-25.3 44.5-45 93.3-58.5 4.8-1.3 9.7-.2 13 3.2 3.3 3.3 4.5 8.2 3.2 13-13.4 48.8-33.1 80.2-58.5 93.3-9.7 5-18.9 6.7-26.8 6.7zm73-113.7c-1 0-2.1.1-3.1.4-48 13.2-78.8 32.4-91.5 56.9-9.8 18.9-6.1 35.9-3 44.3 1 2.7 3 4.7 5.7 5.7 8.5 3.1 25.5 6.7 44.3-3 24.6-12.7 43.7-43.5 56.9-91.5 1-3.8.2-7.6-2.4-10.1-1.7-1.7-4.2-2.7-6.9-2.7z"/></g><g><path fill="#2D181B" d="M276.7 678.9c-73.9 0-143.4-30.4-195.7-85.5C28.8 538.3 0 465.1 0 387.2c0-51.8 13.1-102.7 37.8-147.3-4-14.4-19.7-77.2-11.9-140.2l.2-1.9 1.9-.2c65.7-8.1 130 9 141.8 12.3 6.8-10.6 45.5-68.4 105.4-109l1.4-.9 1.4.9c59.9 40.6 98.6 98.4 105.4 109 11.8-3.4 76.1-20.5 141.8-12.3l1.9.2.2 1.9c7.8 62.9-7.9 125.7-11.9 140.2 24.7 44.5 37.8 95.4 37.8 147.3 0 77.9-28.8 151.1-81 206.2-52.1 55.2-121.6 85.5-195.5 85.5zm-246-576.6c-7.3 62.9 8.9 125.3 12.2 137.2l.3 1-.5.9C18 285.5 5 335.9 5 387.2 5 463.8 33.3 535.8 84.6 590c51.3 54.1 119.5 83.9 192.1 83.9 72.5 0 140.8-29.8 192.1-83.9 51.3-54.2 79.6-126.2 79.6-202.8 0-51.3-13-101.7-37.7-145.7l-.5-.9.3-1c3.4-12 19.5-74.3 12.2-137.2-69.5-8.1-139 12.7-139.7 12.9l-1.8.6-1-1.6c-1.6-2.6-40.5-64.9-103.5-108.2-63.1 43.2-101.9 105.5-103.5 108.2l-1 1.6-1.8-.6c-.8-.2-70.2-21-139.7-13z"/></g><path fill="#A9D0E0" d="M313.6 521.3c-14.5 42.2-34.7 65.2-57.5 65.2-2.6 0-5-.3-7-.7-1.2-5.9-1.3-14.2 3.4-23.2 6-11.7 21.7-27.7 61.1-41.3zm15.6-26.8c-1.1 0-2.3.2-3.5.5-112.3 30.9-101.4 86.9-95.5 103.2 1.1 3.1 3.5 5.5 6.6 6.6 4.2 1.5 11 3.4 19.4 3.4 24.1 0 60.9-15.5 83.9-98.9 2.1-8-3.4-14.8-10.9-14.8z"/><path fill="#B94A5E" d="M76.6 447.6c22.2 4.1 37.3 11.2 42.1 20.2 3.8 7 1.2 15.8-1 20.9-3.1 1.3-7.9 2.9-12.8 2.9-5.6 0-9.9-2.1-14-6.9-4.5-5.3-10.4-15.9-14.3-37.1zm-10.1-23.3c-7.1 0-13.9 7.2-13 14.4 7.5 61.1 31.7 74.6 51.6 74.6 10.3 0 19.5-3.6 24.6-6.1 2.8-1.4 5.2-3.8 6.6-6.6 7.3-14.9 24.3-64.7-68.4-76.2-.6-.1-1-.1-1.4-.1zM453.9 474.5c3.5-19 9.6-31.9 17.3-36.1 6-3.3 13.6-1 17.9.8 1.1 2.6 2.5 6.8 2.5 11 0 4.8-1.8 8.5-5.9 12-4.5 4-13.7 9-31.8 12.3zm-20 8.8c0 6.1 6.2 11.9 12.3 11.2 52.3-6.4 63.9-27.2 63.9-44.2 0-8.8-3.1-16.7-5.3-21.1-1.2-2.4-3.2-4.5-5.6-5.6-12.8-6.3-55.5-20.8-65.3 58.7.1.2 0 .6 0 1z"/><g><path fill="#FCF2AD" d="M333.4 636c19.7-105.2 69-116.7 93.6-115.4 9.6.5 17.7 6.7 20.8 15.8 7.8 23.4 9.9 74-86.2 121-14.9 7.2-31.2-5.2-28.2-21.4z"/><path fill="#FFFDF6" d="M424.9 530.9c10.1-.2 18.3 6 20.8 15.8 2.4 9.4 3.7 23-1.1 39.4 9.4-20.6 7-38.3 3.2-49.7-3-9.1-11.2-15.3-20.8-15.8-19.9-1-56.1 6.3-79.5 65 27.2-46.2 59.1-54.4 77.4-54.7z"/><path fill="#EAD094" d="M368.9 632c-14.4 7.6-29.5-3.9-26-19.8 3.9-17.8 8.5-32.8 13.6-45.6-9.3 16.7-17.4 39.2-23 69.4-3 16.3 13.2 28.7 28.1 21.4 72.3-35.3 89-72.7 89.6-99-10.1 21.9-33.3 47.8-82.3 73.6z"/><path fill="#2D181B" d="M355.4 660.8c-5.5.7-10.9-.7-15.5-4.1-6.5-4.9-9.4-12.8-7.9-21 8.6-46.3 23.9-79.4 45.4-98.5 18.2-16.2 37.1-18.8 49.7-18.1 10.2.5 18.9 7.1 22.1 16.8 4 12 6.5 30.9-4.2 52.8-12.6 25.8-40.5 49.4-82.8 70-2.2 1.1-4.5 1.8-6.8 2.1zm-20.5-24.6c-1.3 7.1 1.2 13.8 6.8 18.1 5.6 4.2 12.8 4.9 19.2 1.7 41.7-20.4 69.1-43.5 81.4-68.7 10.3-21 7.9-39 4.1-50.5-2.8-8.5-10.5-14.3-19.4-14.8-12.1-.6-30.1 1.9-47.6 17.4-21 18.7-36 51.2-44.5 96.8z"/></g><g><path fill="#FCF2AD" d="M225.7 627.8c-33.6-101.7-84-106.4-108.3-101.8-9.4 1.8-16.7 9-18.5 18.5-4.6 24.2.1 74.6 101.7 108.3 15.8 5.2 30.3-9.3 25.1-25z"/><path fill="#FFFDF6" d="M120.9 536c-10 1.2-17.3 8.4-18.5 18.5-1.1 9.6-.6 23.2 6.3 38.9-12.1-19.2-12.1-37-9.9-48.8 1.8-9.4 9-16.7 18.5-18.5 19.6-3.7 56.4-1.3 87.5 53.7-33-42.1-65.7-46-83.9-43.8z"/><path fill="#EAD094" d="M190.1 628.6c15.3 5.6 28.7-7.8 23.1-23.1-6.2-17.1-12.8-31.4-19.6-43.4 11.4 15.3 22.5 36.5 32.1 65.7 5.2 15.7-9.3 30.2-25 25-76.4-25.3-98-60-102.1-86 12.9 20.4 39.4 42.8 91.5 61.8z"/><path fill="#2D181B" d="M207.3 655.4c-2.3 0-4.7-.4-7.1-1.2-44.7-14.8-75.5-34.4-91.5-58.3-13.6-20.2-13.6-39.3-11.3-51.7 1.9-10 9.6-17.8 19.7-19.7 12.4-2.4 31.5-2.3 51.7 11.3 23.9 16 43.5 46.8 58.3 91.5 2.6 7.9.8 16.1-5 21.9-4 4-9.3 6.2-14.8 6.2zm-77.7-129c-4.4 0-8.4.5-11.9 1.1-8.8 1.7-15.6 8.4-17.3 17.3-2.2 11.9-2.2 30.1 10.8 49.5 15.6 23.3 45.9 42.5 89.9 57.1 6.8 2.3 13.9.7 18.8-4.3 4.9-4.9 6.5-12 4.3-18.8-14.6-44-33.8-74.3-57.1-89.9-13.6-9.3-26.8-12-37.5-12z"/></g>

<ellipse fill="#2D181B" rx="45.4" ry="10" cx="368.6" cy="268" />

<g class="openEye">
    <circle fill="#2D181B" cx="368.6" cy="268" r="45.4"/>
    <circle fill="#FFF" cx="368.6" cy="251.4" r="16.6"/>
    <circle fill="#FFF" cx="389" cy="275.9" r="10.2"/>
</g>



<g class="pokeBall"><path fill="#B94A5E" d="M549.1 459.5c-62.2-18.1-127.2 14.7-150.3 73.9l237.5 69.1c12.2-62.4-25-124.9-87.2-143z"/><path fill="#AA2946" d="M549.1 459.5c57.3 16.7 90.4 78 77.8 140.3l9.4 2.7c12.2-62.4-25-124.9-87.2-143z"/><path fill="#D88094" d="M549.1 459.5c-62.2-18.1-127.2 14.7-150.3 73.9l9.4 2.7c22.7-59.3 83.6-93.3 140.9-76.6z"/><path fill="#E4E4E4" d="M479.7 698c62.2 18.1 127.2-14.7 150.3-73.9L392.5 555c-12.2 62.4 25 124.9 87.2 143z"/><path fill="#FFF" d="M401.9 557.7l-9.4-2.7c-12.2 62.4 25 124.9 87.2 143-57.3-16.7-90.4-78-77.8-140.3z"/><path fill="#AEAEAE" d="M620.6 621.3c-22.7 59.3-83.6 93.3-140.9 76.7 62.2 18.1 127.2-14.7 150.3-73.9l-9.4-2.8z"/><path d="M398.8 533.4c-1.4 3.5-2.6 7-3.6 10.6-1.1 3.6-1.9 7.3-2.6 10.9L630 624c1.4-3.5 2.6-7 3.6-10.6 1.1-3.6 1.9-7.3 2.6-10.9l-237.4-69.1z"/><ellipse transform="rotate(-73.782 514.415 578.734)" cx="514.4" cy="578.7" rx="46.1" ry="46.1"/><ellipse transform="rotate(-73.782 514.414 578.734)" fill="#FFF" cx="514.4" cy="578.7" rx="26.8" ry="26.8"/><ellipse transform="rotate(-73.782 514.416 578.734)" cx="514.4" cy="578.7" rx="24.2" ry="24.2"/><g><path fill="#2D181B" d="M575.5 690c-1.6.9-3.2 1.7-4.8 2.5-28.6 14.2-61.2 17.1-91.8 8.2-30.6-8.9-56.6-28.8-73.1-56.1-16.4-27.1-22.1-59.1-16-90.1.7-3.8 1.7-7.6 2.7-11.2 1-3.6 2.3-7.3 3.7-10.9 11.5-29.4 33.4-53.4 61.9-67.4 28.6-14.2 61.2-17.1 91.8-8.2 30.6 8.9 56.6 28.8 73.1 56.1 16.4 27.1 22.1 59.1 16 90.1-.7 3.8-1.7 7.6-2.7 11.2-1 3.6-2.3 7.3-3.7 10.9-10.8 27.7-31 50.6-57.1 64.9zM455.9 472.3c-24.9 13.7-44.2 35.6-54.6 62.1-1.4 3.5-2.5 7-3.5 10.4-1 3.4-1.9 7-2.6 10.7-5.8 29.6-.4 60.2 15.3 86.1 15.8 26.1 40.6 45.1 69.9 53.7 29.3 8.5 60.5 5.8 87.8-7.8 27.2-13.5 48.1-36.4 59.1-64.5 1.4-3.5 2.5-7 3.5-10.4 1-3.4 1.9-7 2.6-10.7 5.8-29.6.4-60.2-15.3-86.1-15.8-26.1-40.6-45.1-69.9-53.7-29.3-8.5-60.5-5.8-87.8 7.8-1.4.8-3 1.6-4.5 2.4z"/></g><ellipse transform="rotate(-73.782 514.416 578.734)" fill="#DDD" cx="514.4" cy="578.7" rx="15.5" ry="15.5"/></g></svg>
