<?xml version="1.0" encoding="UTF-8"?>
<svg width="700pt" height="700pt" version="1.1" viewBox="0 0 700 700" xmlns="http://www.w3.org/2000/svg" xmlns:xlink="http://www.w3.org/1999/xlink">
 <defs>
  
 </defs>
 <g>
  <path d="m120.07 444.18c-8.7734 8.7734-13.613 20.445-13.613 32.859 0 12.422 4.832 24.102 13.613 32.879 8.7852 8.7734 20.457 13.613 32.879 13.613 12.414 0 24.086-4.832 32.871-13.613 6.1953-6.2109 10.438-13.883 12.398-22.344l31.332-31.336 0.011718-0.011719 19.375-19.375 24.297 24.305c1.8633 1.8633 4.3906 2.9102 7.0234 2.9102 2.6484 0 5.1758-1.0469 7.0391-2.9102l23.48-23.496c3.8867-3.8711 3.8867-10.168 0-14.055l-21.719-21.734 212.51-153.56c2.3359-1.6914 3.832-4.3164 4.0781-7.1914l10.258-116.24c0.25781-2.9336-0.79688-5.8242-2.8828-7.9023-2.0781-2.0898-4.9727-3.1406-7.9062-2.8828l-116.23 10.246c-2.8828 0.24609-5.5039 1.7461-7.1914 4.082l-153.56 212.52-21.734-21.727c-1.8633-1.8633-4.3867-2.918-7.0352-2.918-2.6367 0-5.1641 1.0547-7.0273 2.918l-23.492 23.48c-3.8789 3.8867-3.8789 10.18 0 14.062l24.297 24.297-50.719 50.719c-8.4609 1.957-16.125 6.2031-22.344 12.406zm32.879 59.469c-7.1055 0-13.781-2.7656-18.805-7.7969-5.0234-5.0273-7.7969-11.703-7.7969-18.805s2.7656-13.781 7.7969-18.801c4.0078-4.0078 9.0898-6.5898 14.684-7.4609 1.3594-0.21094 2.75-0.33203 4.1211-0.33203 7.1133 0 13.789 2.7734 18.801 7.7891 0.75 0.74609 1.4453 1.5352 2.0898 2.3516 4.5234 5.7617 6.5117 13.234 5.3711 20.574-0.86719 5.5938-3.4492 10.672-7.4609 14.684-5.0234 5.0234-11.699 7.7969-18.801 7.7969zm242.21-359.89 99.887-8.7969-8.8008 99.895-211.43 152.77-9.1914-9.1953 178.99-178.98c3.8867-3.8789 3.8867-10.18 0-14.066-3.8789-3.8867-10.168-3.8867-14.055 0l-178.98 178.99-9.1953-9.1914zm-195.79 196.56 90.328 90.328-9.4297 9.4258-24.254-24.254c-0.011719-0.023438-0.023438-0.035156-0.035157-0.042969l-41.738-41.742s-0.011719 0-0.011719-0.011719l-24.277-24.277zm35.504 82.488-12.336 12.336-27.668-27.668 12.336-12.336zm-54.082-1.2773 27.668 27.68-11.883 11.879c-0.066407-0.17188-0.12891-0.34766-0.19531-0.52734-0.14453-0.36328-0.29297-0.73438-0.44922-1.1016-0.17969-0.42969-0.35156-0.87891-0.55859-1.3047-0.15625-0.36328-0.32422-0.73438-0.49219-1.0938-0.21094-0.42188-0.42578-0.85547-0.63281-1.2812-0.17969-0.34766-0.37109-0.69922-0.55859-1.0547-0.23438-0.42188-0.46875-0.83594-0.71875-1.2617-0.20312-0.33984-0.39062-0.67188-0.59766-1.0078-0.26953-0.42578-0.53906-0.83594-0.81641-1.2539-0.21094-0.3125-0.41406-0.63281-0.63672-0.94531-0.30078-0.42578-0.60938-0.83594-0.92578-1.2656-0.21094-0.28125-0.42578-0.57031-0.64844-0.84375-0.35156-0.46094-0.75-0.90625-1.125-1.3477-0.19141-0.22266-0.36328-0.46094-0.57031-0.68359-0.58984-0.65625-1.1992-1.3047-1.832-1.9336-0.58203-0.58203-1.1719-1.1484-1.7734-1.6875-0.19531-0.17969-0.41016-0.35938-0.60938-0.53906-0.41406-0.35938-0.81641-0.70703-1.2305-1.0547-0.25781-0.20312-0.51562-0.39062-0.76562-0.59375-0.37891-0.30078-0.76172-0.58984-1.1523-0.87891-0.28125-0.20312-0.55859-0.38672-0.83594-0.58203-0.375-0.26953-0.77344-0.53906-1.1484-0.78516-0.29297-0.19141-0.58984-0.37891-0.88672-0.55859-0.38672-0.24609-0.77734-0.48047-1.1719-0.70703-0.30078-0.17187-0.59766-0.34766-0.91406-0.52734-0.39062-0.21094-0.79688-0.42188-1.1992-0.62109-0.3125-0.15625-0.60938-0.32422-0.92578-0.46875-0.42578-0.20312-0.85156-0.39844-1.2773-0.58984-0.30078-0.13281-0.59766-0.26953-0.90625-0.40234-0.45312-0.18359-0.91406-0.36328-1.3828-0.54688-0.23438-0.089843-0.45312-0.18359-0.6875-0.26953z"/>
  <path d="m272.79 219.35v-120.91c0-5.4883-4.4531-9.9453-9.9336-9.9453-5.4922 0-9.9453 4.457-9.9453 9.9453v120.91c0 5.4922 4.4531 9.9336 9.9453 9.9336 5.4805 0 9.9336-4.4414 9.9336-9.9336z"/>
  <path d="m388.26 85.242v-38.828c0-5.4922-4.457-9.9453-9.9531-9.9453-5.4883 0-9.9336 4.4531-9.9336 9.9453v38.832c0 5.4883 4.4453 9.9453 9.9336 9.9453 5.4961-0.003906 9.9531-4.4609 9.9531-9.9492z"/>
  <path d="m400.71 367.15c0 5.4805 4.457 9.9336 9.9414 9.9336h120.91c5.4883 0 9.9453-4.457 9.9453-9.9336 0-5.4922-4.457-9.9531-9.9453-9.9531l-120.91 0.003906c-5.4844 0-9.9414 4.457-9.9414 9.9492z"/>
  <path d="m583.6 241.74h-38.84c-5.4883 0-9.9453 4.457-9.9453 9.9453 0 5.4922 4.457 9.9531 9.9453 9.9531h38.84c5.4805 0 9.9336-4.457 9.9336-9.9531 0-5.4883-4.457-9.9453-9.9336-9.9453z"/>
  <path d="m544.58 99.477 12.914-12.898c3.8867-3.8867 3.8867-10.18 0-14.074-3.8867-3.8906-10.168-3.8867-14.062 0l-12.906 12.906c-3.8867 3.8867-3.8867 10.188 0 14.062 1.9414 1.9414 4.4922 2.918 7.0352 2.918 2.5352 0 5.0742-0.97656 7.0195-2.9141z"/>
  <use x="70" y="644" xlink:href="#y"/>
  <use x="90.550781" y="644" xlink:href="#c"/>
  <use x="104.359375" y="644" xlink:href="#a"/>
  <use x="123.347656" y="644" xlink:href="#f"/>
  <use x="142.242188" y="644" xlink:href="#b"/>
  <use x="155.628906" y="644" xlink:href="#a"/>
  <use x="174.617188" y="644" xlink:href="#k"/>
  <use x="204.410156" y="644" xlink:href="#j"/>
  <use x="224.453125" y="644" xlink:href="#i"/>
  <use x="252.453125" y="644" xlink:href="#h"/>
  <use x="274.011719" y="644" xlink:href="#g"/>
  <use x="293.945312" y="644" xlink:href="#x"/>
  <use x="310.609375" y="644" xlink:href="#w"/>
  <use x="320.210938" y="644" xlink:href="#f"/>
  <use x="339.101562" y="644" xlink:href="#e"/>
  <use x="368.785156" y="644" xlink:href="#v"/>
  <use x="392.027344" y="644" xlink:href="#a"/>
  <use x="411.015625" y="644" xlink:href="#u"/>
  <use x="427.3125" y="644" xlink:href="#t"/>
  <use x="436.914062" y="644" xlink:href="#s"/>
  <use x="456.953125" y="644" xlink:href="#e"/>
  <use x="70" y="672" xlink:href="#r"/>
  <use x="82.183594" y="672" xlink:href="#c"/>
  <use x="95.992188" y="672" xlink:href="#d"/>
  <use x="115.226562" y="672" xlink:href="#q"/>
  <use x="154.152344" y="672" xlink:href="#b"/>
  <use x="167.535156" y="672" xlink:href="#p"/>
  <use x="187.46875" y="672" xlink:href="#a"/>
  <use x="216.207031" y="672" xlink:href="#o"/>
  <use x="239.640625" y="672" xlink:href="#d"/>
  <use x="258.878906" y="672" xlink:href="#g"/>
  <use x="278.8125" y="672" xlink:href="#e"/>
  <use x="308.492188" y="672" xlink:href="#n"/>
  <use x="329.015625" y="672" xlink:href="#c"/>
  <use x="342.820312" y="672" xlink:href="#d"/>
  <use x="362.058594" y="672" xlink:href="#m"/>
  <use x="371.65625" y="672" xlink:href="#a"/>
  <use x="390.648438" y="672" xlink:href="#l"/>
  <use x="407.242188" y="672" xlink:href="#b"/>
 </g>
</svg>
