<?xml version="1.0" encoding="iso-8859-1"?>
<!-- Generator: Adobe Illustrator 19.0.0, SVG Export Plug-In . SVG Version: 6.00 Build 0)  -->
<svg version="1.1" id="Capa_1" xmlns="http://www.w3.org/2000/svg" xmlns:xlink="http://www.w3.org/1999/xlink" x="0px" y="0px"
	 viewBox="0 0 58 58" style="enable-background:new 0 0 58 58;" xml:space="preserve">
<g>
	<g>
		<path d="M57.484,28.125l-19-10.5c-0.311-0.171-0.687-0.165-0.992,0.014C37.187,17.818,37,18.146,37,18.5v5h-6
			c-0.552,0-1,0.448-1,1v9c0,0.552,0.448,1,1,1h6v5c0,0.354,0.187,0.682,0.492,0.861C37.648,40.453,37.824,40.5,38,40.5
			c0.167,0,0.333-0.042,0.484-0.125l19-10.5C57.802,29.699,58,29.364,58,29S57.802,28.301,57.484,28.125z M39,37.805V33.5
			c0-0.552-0.448-1-1-1h-6v-7h6c0.552,0,1-0.448,1-1v-4.305L54.933,29L39,37.805z"/>
		<path d="M27,23.5h-6v-5c0-0.354-0.187-0.682-0.492-0.861c-0.305-0.179-0.682-0.185-0.992-0.014l-19,10.5
			C0.198,28.301,0,28.636,0,29c0,0.364,0.198,0.699,0.516,0.875l19,10.5C19.667,40.458,19.833,40.5,20,40.5
			c0.176,0,0.352-0.046,0.508-0.139C20.813,40.182,21,39.854,21,39.5v-5h6c0.552,0,1-0.448,1-1v-9C28,23.948,27.552,23.5,27,23.5z
			 M26,32.5h-6c-0.552,0-1,0.448-1,1v4.305L3.067,29L19,20.195V24.5c0,0.552,0.448,1,1,1h6V32.5z"/>
	</g>
</g>
<g>
</g>
<g>
</g>
<g>
</g>
<g>
</g>
<g>
</g>
<g>
</g>
<g>
</g>
<g>
</g>
<g>
</g>
<g>
</g>
<g>
</g>
<g>
</g>
<g>
</g>
<g>
</g>
<g>
</g>
</svg>
